<svg width="100" height="100" viewBox="0 0 100 100" fill="none" xmlns="http://www.w3.org/2000/svg">
<g clip-path="url(#clip0_75_2713)">
<path d="M50 100C77.6142 100 100 77.6142 100 50C100 22.3858 77.6142 0 50 0C22.3858 0 0 22.3858 0 50C0 77.6142 22.3858 100 50 100Z" fill="url(#paint0_radial_75_2713)"/>
<path d="M31.4453 47.0508C34.6921 47.0508 37.3242 43.3606 37.3242 38.8086C37.3242 34.2566 34.6921 30.5664 31.4453 30.5664C28.1985 30.5664 25.5664 34.2566 25.5664 38.8086C25.5664 43.3606 28.1985 47.0508 31.4453 47.0508Z" fill="#FFDF9F"/>
<path d="M68.5547 47.0508C71.8015 47.0508 74.4336 43.3606 74.4336 38.8086C74.4336 34.2566 71.8015 30.5664 68.5547 30.5664C65.3079 30.5664 62.6758 34.2566 62.6758 38.8086C62.6758 43.3606 65.3079 47.0508 68.5547 47.0508Z" fill="#FFDF9F"/>
<path d="M50.2149 77.2266C46.7578 77.2266 43.2813 76.6602 39.8047 75.5078C30.6055 72.4805 24.7852 66.543 24.5508 66.2891C23.9453 65.6641 23.9649 64.6875 24.5899 64.082C25.2149 63.4766 26.1914 63.4961 26.7969 64.1211C26.8555 64.1797 32.4024 69.8242 40.8985 72.5781C52.1485 76.2305 63.0469 73.3594 73.2813 64.043C73.9258 63.457 74.9024 63.5156 75.4883 64.1406C76.0742 64.7852 76.0156 65.7617 75.3906 66.3477C69.2774 71.9141 62.793 75.3906 56.1133 76.6602C54.1602 77.0312 52.1875 77.2266 50.2149 77.2266Z" fill="#FFDF9F"/>
</g>
<defs>
<radialGradient id="paint0_radial_75_2713" cx="0" cy="0" r="1" gradientUnits="userSpaceOnUse" gradientTransform="translate(50 50) rotate(90) scale(50)">
<stop offset="0.918269"/>
<stop offset="1" stop-color="#F4CD7F"/>
</radialGradient>
<clipPath id="clip0_75_2713">
<rect width="100" height="100" fill="white"/>
</clipPath>
</defs>
</svg>
