<svg width="100" height="100" viewBox="0 0 100 100" fill="none" xmlns="http://www.w3.org/2000/svg">
<g clip-path="url(#clip0_77_2751)">
<path d="M50 100C77.6142 100 100 77.6142 100 50C100 22.3858 77.6142 0 50 0C22.3858 0 0 22.3858 0 50C0 77.6142 22.3858 100 50 100Z" fill="url(#paint0_radial_77_2751)"/>
<path d="M77.3242 68.8281H22.6758C21.6016 68.8281 20.7227 67.9492 20.7227 66.875C20.7227 65.8008 21.6016 64.9219 22.6758 64.9219H77.3242C78.3984 64.9219 79.2773 65.8008 79.2773 66.875C79.2773 67.9492 78.3984 68.8281 77.3242 68.8281Z" fill="#FFDF9F"/>
<path d="M28.457 42.7344C31.6499 42.7344 34.2383 40.146 34.2383 36.9531C34.2383 33.7602 31.6499 31.1719 28.457 31.1719C25.2641 31.1719 22.6758 33.7602 22.6758 36.9531C22.6758 40.146 25.2641 42.7344 28.457 42.7344Z" fill="#FFDF9F"/>
<path d="M71.543 42.7344C74.7359 42.7344 77.3242 40.146 77.3242 36.9531C77.3242 33.7602 74.7359 31.1719 71.543 31.1719C68.3501 31.1719 65.7617 33.7602 65.7617 36.9531C65.7617 40.146 68.3501 42.7344 71.543 42.7344Z" fill="#FFDF9F"/>
</g>
<defs>
<radialGradient id="paint0_radial_77_2751" cx="0" cy="0" r="1" gradientUnits="userSpaceOnUse" gradientTransform="translate(50 50) rotate(90) scale(50)">
<stop offset="0.918269" stop-color="#0E0E0E"/>
<stop offset="1" stop-color="#F4CD7F"/>
</radialGradient>
<clipPath id="clip0_77_2751">
<rect width="100" height="100" fill="white"/>
</clipPath>
</defs>
</svg>
