<svg width="100" height="100" viewBox="0 0 100 100" fill="none" xmlns="http://www.w3.org/2000/svg">
<g clip-path="url(#clip0_75_2736)">
<path d="M49.9414 99.9219C77.5556 99.9219 99.9414 77.5361 99.9414 49.9219C99.9414 22.3076 77.5556 -0.078125 49.9414 -0.078125C22.3272 -0.078125 -0.0585938 22.3076 -0.0585938 49.9219C-0.0585938 77.5361 22.3272 99.9219 49.9414 99.9219Z" fill="url(#paint0_radial_75_2736)"/>
<path d="M68.4766 46.9531C71.7234 46.9531 74.3555 43.263 74.3555 38.7109C74.3555 34.1589 71.7234 30.4688 68.4766 30.4688C65.2297 30.4688 62.5977 34.1589 62.5977 38.7109C62.5977 43.263 65.2297 46.9531 68.4766 46.9531Z" fill="#FFDF9F"/>
<path d="M31.3867 46.9531C34.6335 46.9531 37.2656 43.263 37.2656 38.7109C37.2656 34.1589 34.6335 30.4688 31.3867 30.4688C28.1399 30.4688 25.5078 34.1589 25.5078 38.7109C25.5078 43.263 28.1399 46.9531 31.3867 46.9531Z" fill="#FFDF9F"/>
<path d="M25.6054 78.3984C25.1757 78.3984 24.7656 78.2226 24.4531 77.8906C23.8671 77.2461 23.9257 76.2695 24.5507 75.6836C30.664 70.1172 37.1484 66.6406 43.8281 65.3711C49.1992 64.3359 54.6874 64.7266 60.1367 66.5234C69.3359 69.5508 75.1562 75.4883 75.3906 75.7422C75.996 76.3672 75.9765 77.3437 75.3515 77.9492C74.7265 78.5547 73.7499 78.5351 73.1445 77.9101C73.0273 77.793 67.4999 72.1875 59.0429 69.4531C47.7929 65.8008 36.8945 68.6719 26.6601 77.9883C26.3476 78.2812 25.9765 78.3984 25.6054 78.3984Z" fill="#FFDF9F"/>
</g>
<defs>
<radialGradient id="paint0_radial_75_2736" cx="0" cy="0" r="1" gradientUnits="userSpaceOnUse" gradientTransform="translate(49.9414 49.9219) rotate(90) scale(50)">
<stop offset="0.923077" stop-color="#0E0E0E"/>
<stop offset="1" stop-color="#C29D54"/>
</radialGradient>
<clipPath id="clip0_75_2736">
<rect width="100" height="100" fill="white"/>
</clipPath>
</defs>
</svg>
